# xmcd
#
# Track frame offsets: 
#        150
#        17694
#        29069
#        43230
#
# Disc length: 736 seconds
#
# Revision: 2
# Processed by: cddbd v1.4PL0 Copyright (c) Steve Scherf et al.
# Submitted via: ExactAudioCopy v0.90b4
#
DISCID=3002de04
DTITLE=The First Frament - Entertainment Or Death
DYEAR=2003
DGENRE=BritPop
TTITLE0=Meaning Of Live
TTITLE1=Jealousie
TTITLE2=Involuntary
TTITLE3=Go To Hell
EXTD=
EXTT0=
EXTT1=
EXTT2=
EXTT3=
PLAYORDER=
